<?xml version="1.0" encoding="UTF-8" standalone="no"?>
<!-- Created with Inkscape (http://www.inkscape.org/) -->

<svg
   xmlns:dc="http://purl.org/dc/elements/1.1/"
   xmlns:cc="http://creativecommons.org/ns#"
   xmlns:rdf="http://www.w3.org/1999/02/22-rdf-syntax-ns#"
   xmlns:svg="http://www.w3.org/2000/svg"
   xmlns="http://www.w3.org/2000/svg"
   xmlns:sodipodi="http://sodipodi.sourceforge.net/DTD/sodipodi-0.dtd"
   xmlns:inkscape="http://www.inkscape.org/namespaces/inkscape"
   width="45.666862mm"
   height="93.272408mm"
   viewBox="0 0 45.666862 93.272408"
   version="1.1"
   id="svg5359"
   inkscape:version="0.92.4 5da689c313, 2019-01-14"
   sodipodi:docname="disegno-1.svg">
  <defs
     id="defs5353" />
  <sodipodi:namedview
     id="base"
     pagecolor="#ffffff"
     bordercolor="#666666"
     borderopacity="1.0"
     inkscape:pageopacity="0.0"
     inkscape:pageshadow="2"
     inkscape:zoom="1.4"
     inkscape:cx="-36.461924"
     inkscape:cy="165.89974"
     inkscape:document-units="mm"
     inkscape:current-layer="layer1"
     showgrid="false"
     inkscape:window-width="1920"
     inkscape:window-height="1048"
     inkscape:window-x="0"
     inkscape:window-y="0"
     inkscape:window-maximized="1"
     fit-margin-top="0"
     fit-margin-left="0"
     fit-margin-right="0"
     fit-margin-bottom="0" />
  <metadata
     id="metadata5356">
    <rdf:RDF>
      <cc:Work
         rdf:about="">
        <dc:format>image/svg+xml</dc:format>
        <dc:type
           rdf:resource="http://purl.org/dc/dcmitype/StillImage" />
        <dc:title></dc:title>
      </cc:Work>
    </rdf:RDF>
  </metadata>
  <g
     inkscape:label="Livello 1"
     inkscape:groupmode="layer"
     id="layer1"
     transform="translate(-30.306353,9.9166649)">
    <path
       style="opacity:1;fill:#8c88ff;fill-opacity:1;stroke:none;stroke-width:0.26458332;stroke-opacity:1"
       d="m 46.837235,-7.4750765 -5.82032,0.006 c -2.78705,0 -4.24721,0.001 -5.06067,0.015 -0.81347,0.014 -0.98027,0.0406 -1.17874,0.0909 -0.27815,0.0727 -0.53569,0.17718 -0.7705,0.31058 -0.23482,0.13339 -0.44662,0.29586 -0.63252,0.48421 -0.1859,0.18834 -0.34611,0.40274 -0.47749,0.64027 -0.13139,0.23752 -0.23412,0.49782 -0.30541,0.77876 -0.0559,0.21525 -0.0837,0.4111 -0.0977,5.60431004 -0.014,5.19321956 -0.0139,15.38417946 -0.0139,35.58956046 0,27.54059 0.0167,40.880181 0.0558,41.126172 0.0335,0.20687 0.15657,0.564568 0.27957,0.827339 0.095,0.198469 0.20637,0.380841 0.33435,0.547251 0.12797,0.16642 0.27248,0.317129 0.43356,0.451659 0.32217,0.26906 0.71068,0.474451 1.16634,0.617011 0.15934,0.0473 0.41679,0.0725 2.80758,0.0858 2.39079,0.01331 6.91507,0.015 15.60887,0.015 h 18.08623 l 0.391711,-0.122989 c 0.25718,-0.0811 0.493659,-0.18596 0.708998,-0.313679 0.215332,-0.127712 0.409602,-0.278511 0.581872,-0.451131 0.17227,-0.172619 0.322638,-0.367141 0.45062,-0.582911 0.127979,-0.215771 0.23328,-0.45285 0.315748,-0.710031 l 0.122981,-0.391189 V 36.106233 -4.9310465 l -0.13435,-0.40773 c -0.0867,-0.26277 -0.20474,-0.50861 -0.350369,-0.73277 -0.145621,-0.22416 -0.318331,-0.42677 -0.513659,-0.60358 -0.195332,-0.17681 -0.413282,-0.32783 -0.64906,-0.44856 -0.235781,-0.12072 -0.489583,-0.21125 -0.756542,-0.26716 -0.329859,-0.0671 -1.269119,-0.0837 -5.95984,-0.0837 h -5.568659 l -0.15658,0.12299 c -0.095,0.0755 -0.166331,0.16737 -0.220142,0.29456 -0.0538,0.12719 -0.0901,0.28963 -0.115239,0.50488 -0.0308,0.23901 -0.0836,0.45983 -0.158639,0.66146 -0.075,0.20162 -0.171971,0.38408 -0.29043,0.54621 -0.118452,0.16214 -0.258609,0.30371 -0.419611,0.42427 -0.160999,0.12055 -0.34303,0.21975 -0.5457,0.29662 -0.142569,0.0529 -0.2476,0.0809 -0.842331,0.0956 -0.594719,0.0147 -1.678999,0.0165 -3.781159,0.0165 -2.49632,0 -3.66221,0.008 -4.28139,-0.0553 -0.3096,-0.0318 -0.48267,-0.0818 -0.61702,-0.159671 -0.13436,-0.0778 -0.22984,-0.183669 -0.38499,-0.327629 -0.22363,-0.20407 -0.39312,-0.422091 -0.51263,-0.6625 -0.11951,-0.240401 -0.18931,-0.502811 -0.21446,-0.796331 -0.0195,-0.243209 -0.0434,-0.39574 -0.093,-0.51315 -0.0496,-0.117409 -0.12504,-0.199909 -0.24804,-0.30334 z"
       id="path5320-3"
       inkscape:connector-curvature="0" />
    <path
       style="fill:#000000;fill-opacity:1;stroke:none;stroke-width:0.00559086"
       id="path4923-3-0-2-6"
       d="m 39.635955,-9.9012665 c -3.44397,0.10064 -4.82492,0.25159 -6.122,0.6765 -0.76594,0.246 -1.17967,0.49758 -1.705211,1.02313 -0.82745,0.82744 -1.1014,1.5263 -1.38094,3.55019 -0.0895,0.62059 -0.0951,3.58375 -0.11741,40.1983215 -0.0112,28.272999 0,39.868441 0.0447,40.72944 0.0671,1.274709 0.19008,2.644489 0.27954,3.14207 0.15095,0.78831 0.54231,1.582211 1.05108,2.12453 1.056671,1.118161 2.571801,1.543079 6.189091,1.733169 1.96798,0.106211 29.217849,0.106211 30.777701,0 1.900891,-0.128598 2.884889,-0.279559 3.963918,-0.60941 0.900131,-0.268369 1.341811,-0.514358 1.856171,-1.02313 0.983991,-0.9784 1.33063,-2.27547 1.453621,-5.423138 0.0895,-2.297851 0.0391,-79.4964925 -0.0503,-80.3407225 -0.251589,-2.30902 -0.57586,-3.24829 -1.40331,-4.08692 -0.687681,-0.68208 -1.31944,-0.9784 -2.6948,-1.24676 -1.15171,-0.22363 -1.962391,-0.3075 -3.4887,-0.37459 -1.257941,-0.0559 -27.037411,-0.1174 -28.653171,-0.0727 z m 7.37435,2.5718 c 0.246,0.20686 0.30191,0.32986 0.34104,0.81627 0.0503,0.58704 0.27954,1.05108 0.72681,1.45921 0.62059,0.57586 0.29073,0.54231 5.28337,0.54231 4.20433,0 4.338511,-0.006 4.623639,-0.11181 0.810681,-0.3075 1.291492,-0.97281 1.414492,-1.92885 0.0503,-0.4305 0.145359,-0.64854 0.335449,-0.79949 l 0.156552,-0.123 h 5.568497 c 4.690732,0 5.630003,0.0168 5.959861,0.0839 1.067851,0.22364 1.923259,1.00076 2.26989,2.05185 l 0.134181,0.40813 v 41.0369605 41.03693 l -0.123,0.391351 c -0.329861,1.028729 -1.028721,1.733179 -2.057439,2.057439 l -0.391362,0.12301 h -18.08644 c -17.38759,0 -18.09763,-0.006 -18.41631,-0.10065 -0.91131,-0.28512 -1.55426,-0.821859 -1.93443,-1.615749 -0.123,-0.262771 -0.246,-0.62058 -0.27955,-0.82745 -0.0391,-0.245991 -0.0559,-13.585791 -0.0559,-41.126392 0,-40.4107695 0,-40.7629995 0.11182,-41.1934895 0.28514,-1.12377 1.07345,-1.92326 2.18603,-2.21399 0.39695,-0.10063 0.66531,-0.10622 6.2394,-0.10622 l 5.82009,-0.006 z"
       inkscape:connector-curvature="0" />
    <g
       transform="matrix(0.16973988,0,0,0.1720753,57.822564,-77.703374)"
       id="g1564"
       style="fill:#ffffff;fill-opacity:1">
      <path
         sodipodi:nodetypes="cccccscccccsccccccccssssccsscssscccscscscccccccssccsccssscc"
         inkscape:connector-curvature="0"
         id="path1556"
         d="m -79.278986,716.47504 c -1.34015,-0.31958 -2.59284,-1.23277 -4.51239,-3.28948 -10.63145,-11.39107 -17.400154,-25.44674 -19.710144,-40.92937 -0.51497,-3.45162 -0.60757,-5.11864 -0.6014,-10.82667 0.004,-4.08937 0.14453,-7.73693 0.35572,-9.26042 2.28194,-16.46213 8.779077,-30.33855 19.807064,-42.30341 2.6102,-2.83195 3.68342,-3.45504 5.96598,-3.4637 4.06991,-0.0154 6.757005,3.84022 5.374315,7.71149 -0.19063,0.53373 -1.405795,2.11763 -2.700355,3.51976 -8.97452,9.72019 -14.6718,21.44104 -16.65861,34.27128 -0.58662,3.78815 -0.7819,11.40573 -0.39864,15.55024 0.90678,9.80601 4.26682,19.76187 9.37421,27.776 2.30163,3.61155 4.07739,5.93415 7.33243,9.59042 2.975575,3.34238 3.423615,4.13098 3.414985,6.01078 -0.012,2.61469 -1.995305,5.07071 -4.534495,5.61526 -1.43773,0.30834 -1.33698,0.30722 -2.50867,0.0278 z m 99.785434,-0.45109 c -2.751325,-1.44791 -3.954835,-4.42994 -2.937462,-7.2784 0.190629,-0.53373 1.405795,-2.11762 2.700364,-3.51976 8.974516,-9.72019 14.671792,-21.44103 16.658609,-34.27127 0.586613,-3.78816 0.781894,-11.40574 0.39864,-15.55024 -0.906786,-9.80601 -4.266822,-19.76188 -9.374212,-27.77601 -2.301632,-3.61155 -4.077396,-5.93415 -7.332427,-9.59042 -2.975584,-3.34238 -3.423627,-4.13098 -3.414993,-6.01077 0.01217,-2.65097 2.012328,-5.09672 4.592193,-5.61526 2.537206,-0.50996 4.147026,0.24408 6.963368,3.26165 10.631445,11.39107 17.400162,25.44674 19.710144,40.92938 0.514974,3.45161 0.607575,5.11864 0.601403,10.82667 -0.0044,4.08937 -0.144534,7.73692 -0.355717,9.26041 -1.735878,12.52278 -5.739823,23.12433 -12.490823,33.07292 -3.817326,5.62539 -8.84264,11.36765 -10.677861,12.20124 -1.342591,0.60983 -3.937612,0.64064 -5.041226,0.0599 z m -83.620819,-12.87164 c -2.91301,-1.39238 -8.9006,-9.05336 -12.188025,-15.5943 -4.36351,-8.68203 -6.20559,-16.44886 -6.22831,-26.26079 -0.0325,-14.04166 4.89479,-27.03424 14.385545,-37.93257 2.84081,-3.26213 4.13169,-4.09242 6.39631,-4.11408 2.01926,-0.0193 3.62096,0.79874 4.77096,2.4367 0.65433,0.93197 0.81573,1.45857 0.89906,2.93337 0.1294,2.29006 -0.26231,3.0708 -3.13546,6.2495 -14.988676,20.33812 -14.929481,44.43213 0.48512,61.75961 2.72294,3.00099 3.27772,4.44256 2.58961,6.72896 -1.07135,3.55985 -4.77647,5.32236 -7.97481,3.7936 z m 66.8829812,0.27307 c -2.398512,-0.91355 -3.75475004,-2.94063 -3.75720804,-5.61565 -0.0019,-1.96912 0.380122,-2.64434 3.48905504,-6.16831 C 13.766026,680.00541 17.393885,664.37039 13.3347,649.25868 12.030397,644.40297 9.1882982,638.52655 6.2289252,634.56655 c -0.764439,-1.02292 -2.4125,-3.02722 -3.662354,-4.45401 -1.93031004,-2.20357 -2.31532204,-2.80061 -2.55712404,-3.96536 -0.745673,-3.59188 1.94484104,-6.87113 5.65212404,-6.88891 2.246964,-0.0108 3.387723,0.66537 5.9567658,3.53067 8.093851,9.02719 13.217697,20.21846 14.576238,31.83673 0.450955,3.8566 0.393321,11.1793 -0.114988,14.60905 -1.253734,8.45946 -4.25435,16.56015 -8.595241,23.2044 -3.18343,4.87261 -7.296061,9.65231 -9.0947748,10.56994 -1.291328,0.65879 -3.469203,0.855 -4.620961,0.41632 z"
         style="fill:#ffffff;stroke-width:0.26458335;fill-opacity:1" />
      <circle
         r="20.257162"
         cy="661.47327"
         cx="-27.515423"
         id="path1560"
         style="opacity:1;fill:#ffffff;fill-opacity:1;stroke:none;stroke-width:0.26458332;stroke-opacity:1" />
    </g>
  </g>
</svg>
